<svg width="25" height="24" viewBox="0 0 25 24" fill="none" xmlns="http://www.w3.org/2000/svg">
<path d="M21.3949 9.99927C21.3949 16.9993 12.3949 22.9993 12.3949 22.9993C12.3949 22.9993 3.3949 16.9993 3.3949 9.99927C3.3949 7.61232 4.34311 5.32313 6.03094 3.63531C7.71876 1.94748 10.0079 0.999268 12.3949 0.999268C14.7818 0.999268 17.071 1.94748 18.7589 3.63531C20.4467 5.32313 21.3949 7.61232 21.3949 9.99927Z" stroke="white" stroke-width="1.99832" stroke-linecap="round" stroke-linejoin="round"/>
<path d="M12.3949 13.0001C14.0518 13.0001 15.3949 11.657 15.3949 10.0001C15.3949 8.34327 14.0518 7.00012 12.3949 7.00012C10.738 7.00012 9.3949 8.34327 9.3949 10.0001C9.3949 11.657 10.738 13.0001 12.3949 13.0001Z" stroke="white" stroke-width="1.99832" stroke-linecap="round" stroke-linejoin="round"/>
</svg>
