<svg width="194" height="103" viewBox="0 0 194 103" fill="none" xmlns="http://www.w3.org/2000/svg">
<path d="M19.476 40.8C19.932 41.256 20.16 41.844 20.16 42.564C20.16 43.164 20.028 43.776 19.764 44.4L10.548 66L10.152 66.18L1.08 40.8H4.14L11.664 62.112L19.332 44.4C19.596 43.8 19.728 43.176 19.728 42.528C19.728 41.88 19.548 41.376 19.188 41.016L19.476 40.8ZM36.4525 66C34.8205 66 33.7045 65.688 33.1045 65.064C32.5525 64.536 32.2765 64.08 32.2765 63.696V62.94C31.1005 65.076 29.2165 66.144 26.6245 66.144C23.6005 66.144 21.8845 64.776 21.4765 62.04C21.4285 61.752 21.4045 61.464 21.4045 61.176C21.4045 60.864 21.4525 60.528 21.5485 60.168C21.6445 59.808 21.9205 59.412 22.3765 58.98C23.2885 58.116 25.2925 57.588 28.3885 57.396C29.1565 57.324 29.8645 57.288 30.5125 57.288C31.1605 57.288 31.7485 57.312 32.2765 57.36V51.384C32.2285 51.36 32.2285 51.252 32.2765 51.06C32.3245 50.844 32.2765 50.58 32.1325 50.268C32.0125 49.932 31.8445 49.608 31.6285 49.296C31.4125 48.984 31.0285 48.72 30.4765 48.504C29.9245 48.264 29.2045 48.144 28.3165 48.144C27.4285 48.144 26.3845 48.312 25.1845 48.648C24.0085 48.96 23.1445 49.272 22.5925 49.584L22.4485 49.332C24.5845 48.348 26.7565 47.856 28.9645 47.856C31.4365 47.856 33.0685 48.3 33.8605 49.188C34.4845 49.884 34.7965 50.616 34.7965 51.384V63.444C34.7965 64.14 34.9285 64.68 35.1925 65.064C35.4805 65.424 35.7685 65.616 36.0565 65.64L36.4525 65.712H37.5685V66H36.4525ZM27.2005 65.856C28.4725 65.856 29.6125 65.424 30.6205 64.56C31.6525 63.672 32.2045 62.82 32.2765 62.004V57.648C31.6285 57.6 30.9685 57.576 30.2965 57.576C29.6485 57.576 29.0005 57.612 28.3525 57.684C26.5285 57.9 25.3405 58.308 24.7885 58.908C24.2365 59.508 23.9605 60.336 23.9605 61.392C23.9605 61.584 23.9725 61.8 23.9965 62.04C24.2125 64.584 25.2805 65.856 27.2005 65.856ZM42.7725 61.86C42.7725 63.756 43.2765 64.968 44.2845 65.496C44.7645 65.736 45.3765 65.856 46.1205 65.856C47.6325 65.856 48.9765 65.28 50.1525 64.128C51.3525 62.976 52.0005 61.908 52.0965 60.924V48H54.6165V63.444C54.6165 64.14 54.7485 64.68 55.0125 65.064C55.3005 65.424 55.5885 65.616 55.8765 65.64L56.2725 65.712H57.3885V66H55.1925C54.2085 66 53.4525 65.784 52.9245 65.352C52.4205 64.92 52.1565 64.488 52.1325 64.056L52.0965 63.444V61.896C51.6645 62.928 50.8965 63.9 49.7925 64.812C48.6885 65.7 47.4765 66.144 46.1565 66.144C44.8605 66.144 43.7925 66.024 42.9525 65.784C42.1365 65.52 41.5485 65.16 41.1885 64.704C40.5645 63.96 40.2525 63 40.2525 61.824V48H42.7725V61.86ZM63.7737 66C61.6617 66 60.3297 65.448 59.7777 64.344C59.6577 64.104 59.5977 63.888 59.5977 63.696V39.036H62.1177V63.444C62.1177 64.14 62.2497 64.68 62.5137 65.064C62.8017 65.424 63.0897 65.616 63.3777 65.64L63.7737 65.712H64.8897V66H63.7737ZM67.4241 48.288V48H68.1801V44.4H70.7001V48H76.2081V48.288H70.7001V61.392C70.7001 62.952 70.8681 64.08 71.2041 64.776C71.5641 65.472 72.2961 65.82 73.4001 65.82C74.5281 65.82 75.6681 65.592 76.8201 65.136L76.9281 65.424C75.7281 65.88 74.3481 66.108 72.7881 66.108C71.2521 66.108 70.1001 65.796 69.3321 65.172C68.5641 64.524 68.1801 63.252 68.1801 61.356V48.288H67.4241ZM82.0035 56.46H87.9435V49.44H90.8235V56.46H97.1235V56.748H90.8235V64.56H87.9435V56.748H82.0035V56.46ZM121.218 40.8C121.674 41.256 121.902 41.844 121.902 42.564C121.902 43.164 121.77 43.776 121.506 44.4L112.29 66L111.894 66.18L102.822 40.8H105.882L113.406 62.112L121.074 44.4C121.338 43.8 121.47 43.176 121.47 42.528C121.47 41.88 121.29 41.376 120.93 41.016L121.218 40.8ZM128.089 66C127.105 66 126.349 65.784 125.821 65.352C125.317 64.92 125.053 64.488 125.029 64.056L124.993 63.444V48H127.513V63.444C127.513 64.14 127.645 64.68 127.909 65.064C128.197 65.424 128.473 65.616 128.737 65.64L129.169 65.712H130.285V66H128.089ZM125.209 43.968C124.921 43.68 124.777 43.32 124.777 42.888C124.777 42.456 124.921 42.096 125.209 41.808C125.497 41.496 125.857 41.34 126.289 41.34C126.721 41.34 127.081 41.496 127.369 41.808C127.681 42.096 127.837 42.456 127.837 42.888C127.837 43.32 127.681 43.68 127.369 43.968C127.081 44.256 126.721 44.4 126.289 44.4C125.857 44.4 125.497 44.256 125.209 43.968ZM147.407 66C146.423 66 145.667 65.784 145.139 65.352C144.635 64.92 144.371 64.488 144.347 64.056L144.311 63.444V52.14C144.311 50.244 143.819 49.032 142.835 48.504C142.331 48.264 141.707 48.144 140.963 48.144C139.427 48.144 138.047 48.756 136.823 49.98C135.599 51.18 134.987 52.26 134.987 53.22V66H132.467V48H134.987V52.104C135.395 51.072 136.151 50.112 137.255 49.224C138.359 48.312 139.571 47.856 140.891 47.856C142.211 47.856 143.279 47.988 144.095 48.252C144.935 48.492 145.547 48.84 145.931 49.296C146.531 50.04 146.831 51 146.831 52.176V63.444C146.831 64.14 146.963 64.68 147.227 65.064C147.515 65.424 147.803 65.616 148.091 65.64L148.487 65.712H149.603V66H147.407ZM153.513 57.216C153.513 60.192 154.029 62.376 155.061 63.768C156.117 65.16 157.497 65.856 159.201 65.856C161.601 65.856 163.737 65.496 165.609 64.776L165.717 65.028C163.797 65.772 161.625 66.144 159.201 66.144C156.801 66.144 154.845 65.424 153.333 63.984C151.821 62.544 151.065 60.324 151.065 57.324C151.065 54.324 151.857 51.996 153.441 50.34C155.025 48.684 157.041 47.856 159.489 47.856C161.457 47.856 163.113 48.444 164.457 49.62C165.801 50.796 166.473 52.536 166.473 54.84C166.473 54.96 166.473 55.08 166.473 55.2H153.621C153.549 55.848 153.513 56.52 153.513 57.216ZM164.025 54.912C164.001 52.608 163.557 50.904 162.693 49.8C161.829 48.696 160.713 48.144 159.345 48.144C157.977 48.144 156.753 48.744 155.673 49.944C154.617 51.144 153.945 52.8 153.657 54.912H164.025Z" fill="black"/>
<path d="M113.883 7.89572L115.639 3.33403C115.639 3.33403 116.136 2.49212 115.003 1.53468C113.87 0.575372 113.466 1.78883 113.301 1.89502C113.14 2.00281 111.536 3.99213 111.378 4.72604C111.219 5.46172 111.219 5.46172 111.219 5.46172C111.219 5.46172 109.34 2.80158 108.355 2.16448C107.366 1.52583 107.286 1.29461 107.263 1.06096C107.24 0.823667 106.761 0.670718 106.746 1.09899C106.729 1.52551 106.693 2.33371 106.914 2.83869C107.139 3.34335 107.518 4.87936 107.507 5.35449C107.495 5.8295 108.426 7.08963 108.449 7.32504C108.471 7.56045 108.606 8.35419 108.827 8.85917C109.053 9.36559 106.84 12.797 106.539 13.2952C106.24 13.7895 106.035 13.4734 105.68 13.3584C105.319 13.24 103.873 13.2521 103.244 13.2984C102.612 13.3448 93.6229 10.1194 85.0232 10.326C85.0232 10.326 84.8179 9.39259 85.6437 8.38356C86.4738 7.3741 85.1309 6.05204 84.3237 6.11136C83.5208 6.17035 82.8274 6.17235 82.1912 6.78752C81.5572 7.40418 81.3952 8.12556 81.1513 8.57249C80.9049 9.01593 79.1461 14.7379 79.4494 17.2768C79.7522 19.812 78.3451 18.9669 77.8492 18.9563C77.3533 18.9457 76.8084 18.7016 76.2108 19.6939C75.6133 20.6863 75.0496 23.8082 75.0496 23.8082C75.0496 23.8082 74.3424 26.0864 74.3538 26.7969C74.3653 27.5074 74.3534 29.1662 76.283 28.7891C78.212 28.4083 78.0683 28.6579 78.7287 28.0409C79.389 27.4223 81.4899 23.5231 81.6244 23.0861C81.7634 22.6505 82.151 23.0944 82.3907 23.1746C82.63 23.2512 85.2525 24.0539 87.85 22.8187C87.85 22.8187 89.3207 23.0419 91.7952 21.7233C91.7952 21.7233 98.4813 23.8854 104.88 23.6522C104.88 23.6522 109.329 24.176 111.722 26.2066C114.118 28.2349 113.867 28.6317 114.905 28.6042C115.945 28.5749 115.936 28.4797 116.225 28.5072C116.52 28.5327 116.873 29.2162 117.746 29.2479C118.615 29.2782 119.457 29.5983 120.501 29.0455C121.548 28.4944 120.72 28.3199 120.186 28.1672C119.651 28.0165 118.162 26.9892 117.881 26.4886C117.603 25.9878 116.201 24.0528 115.87 22.4192C115.537 20.784 115.428 18.4698 114.783 17.1905C114.14 15.911 114.461 15.6486 114.678 15.4932C114.892 15.3345 115.285 15.7798 116.242 15.5177C117.2 15.259 117.847 14.5491 118.09 14.2923C118.332 14.0373 118.967 13.6595 118.146 12.109C117.324 10.5567 117.467 10.2619 116.786 9.79073C116.104 9.3196 116.026 8.51828 113.883 7.89572Z" fill="#6F8667"/>
<path d="M49.8646 96V79.776H50.6326V96H49.8646ZM50.2966 96V95.304H60.3046V96H50.2966ZM50.2966 88.008V87.336H59.5846V88.008H50.2966ZM50.2966 80.472V79.776H60.1606V80.472H50.2966ZM68.1578 96.24C67.0698 96.24 66.0938 95.992 65.2298 95.496C64.3818 94.984 63.7098 94.296 63.2138 93.432C62.7178 92.568 62.4698 91.592 62.4698 90.504C62.4698 89.416 62.7178 88.44 63.2138 87.576C63.7098 86.696 64.3818 86 65.2298 85.488C66.0778 84.976 67.0378 84.72 68.1098 84.72C68.9578 84.72 69.7178 84.88 70.3898 85.2C71.0778 85.504 71.6458 85.944 72.0938 86.52C72.5578 87.096 72.8778 87.784 73.0538 88.584V92.352C72.8618 93.152 72.5338 93.848 72.0698 94.44C71.6218 95.016 71.0618 95.464 70.3898 95.784C69.7338 96.088 68.9898 96.24 68.1578 96.24ZM68.2538 95.544C69.6298 95.544 70.7258 95.088 71.5418 94.176C72.3578 93.248 72.7658 92.024 72.7658 90.504C72.7658 89.48 72.5738 88.592 72.1898 87.84C71.8218 87.072 71.2938 86.48 70.6058 86.064C69.9178 85.632 69.1178 85.416 68.2058 85.416C67.2458 85.416 66.3898 85.64 65.6378 86.088C64.9018 86.52 64.3178 87.12 63.8858 87.888C63.4538 88.64 63.2378 89.504 63.2378 90.48C63.2378 91.456 63.4538 92.328 63.8858 93.096C64.3178 93.848 64.9098 94.448 65.6618 94.896C66.4298 95.328 67.2938 95.544 68.2538 95.544ZM72.7418 96V93.048L72.9578 90.312L72.7418 87.648V84.96H73.4858V96H72.7418ZM80.4906 96.24C79.8986 96.24 79.3386 96.16 78.8106 96C78.2986 95.824 77.8346 95.592 77.4186 95.304C77.0026 95 76.6346 94.656 76.3146 94.272L76.8186 93.744C77.2986 94.368 77.8506 94.832 78.4746 95.136C79.0986 95.424 79.7786 95.568 80.5146 95.568C81.4266 95.568 82.1546 95.376 82.6986 94.992C83.2426 94.592 83.5146 94.048 83.5146 93.36C83.5146 92.752 83.3546 92.272 83.0346 91.92C82.7306 91.568 82.3306 91.296 81.8346 91.104C81.3386 90.912 80.8106 90.736 80.2506 90.576C79.7066 90.416 79.1866 90.232 78.6906 90.024C78.1946 89.8 77.7866 89.496 77.4666 89.112C77.1626 88.712 77.0106 88.176 77.0106 87.504C77.0106 86.96 77.1546 86.48 77.4426 86.064C77.7306 85.648 78.1386 85.32 78.6666 85.08C79.1946 84.84 79.8186 84.72 80.5386 84.72C81.3226 84.72 82.0426 84.864 82.6986 85.152C83.3546 85.424 83.8666 85.824 84.2346 86.352L83.7306 86.856C83.4106 86.408 82.9626 86.056 82.3866 85.8C81.8106 85.528 81.1706 85.392 80.4666 85.392C79.5706 85.392 78.8906 85.592 78.4266 85.992C77.9626 86.392 77.7306 86.888 77.7306 87.48C77.7306 88.04 77.8826 88.48 78.1866 88.8C78.5066 89.12 78.9146 89.368 79.4106 89.544C79.9066 89.72 80.4266 89.888 80.9706 90.048C81.5306 90.192 82.0586 90.384 82.5546 90.624C83.0506 90.848 83.4506 91.168 83.7546 91.584C84.0746 91.984 84.2346 92.544 84.2346 93.264C84.2346 94.176 83.8906 94.904 83.2026 95.448C82.5306 95.976 81.6266 96.24 80.4906 96.24ZM89.0824 96V80.256H89.8264V96H89.0824ZM86.1544 85.608V84.96H92.7304V85.608H86.1544ZM101.38 96V79.776H102.148V96H101.38ZM101.812 88.296V87.6H110.956V88.296H101.812ZM101.812 80.472V79.776H111.364V80.472H101.812ZM118.923 96.24C117.835 96.24 116.859 95.992 115.995 95.496C115.147 94.984 114.475 94.296 113.979 93.432C113.483 92.568 113.235 91.592 113.235 90.504C113.235 89.416 113.483 88.44 113.979 87.576C114.475 86.696 115.147 86 115.995 85.488C116.843 84.976 117.803 84.72 118.875 84.72C119.723 84.72 120.483 84.88 121.155 85.2C121.843 85.504 122.411 85.944 122.859 86.52C123.323 87.096 123.643 87.784 123.819 88.584V92.352C123.627 93.152 123.299 93.848 122.835 94.44C122.387 95.016 121.827 95.464 121.155 95.784C120.499 96.088 119.755 96.24 118.923 96.24ZM119.019 95.544C120.395 95.544 121.491 95.088 122.307 94.176C123.123 93.248 123.531 92.024 123.531 90.504C123.531 89.48 123.339 88.592 122.955 87.84C122.587 87.072 122.059 86.48 121.371 86.064C120.683 85.632 119.883 85.416 118.971 85.416C118.011 85.416 117.155 85.64 116.403 86.088C115.667 86.52 115.083 87.12 114.651 87.888C114.219 88.64 114.003 89.504 114.003 90.48C114.003 91.456 114.219 92.328 114.651 93.096C115.083 93.848 115.675 94.448 116.427 94.896C117.195 95.328 118.059 95.544 119.019 95.544ZM123.507 96V93.048L123.723 90.312L123.507 87.648V84.96H124.251V96H123.507ZM128.088 96V79.296H128.832V96H128.088ZM132.682 96V79.296H133.426V96H132.682ZM140.444 96.24C139.852 96.24 139.292 96.16 138.764 96C138.252 95.824 137.788 95.592 137.372 95.304C136.956 95 136.588 94.656 136.268 94.272L136.772 93.744C137.252 94.368 137.804 94.832 138.428 95.136C139.052 95.424 139.732 95.568 140.468 95.568C141.38 95.568 142.108 95.376 142.652 94.992C143.196 94.592 143.468 94.048 143.468 93.36C143.468 92.752 143.308 92.272 142.988 91.92C142.684 91.568 142.284 91.296 141.788 91.104C141.292 90.912 140.764 90.736 140.204 90.576C139.66 90.416 139.14 90.232 138.644 90.024C138.148 89.8 137.74 89.496 137.42 89.112C137.116 88.712 136.964 88.176 136.964 87.504C136.964 86.96 137.108 86.48 137.396 86.064C137.684 85.648 138.092 85.32 138.62 85.08C139.148 84.84 139.772 84.72 140.492 84.72C141.276 84.72 141.996 84.864 142.652 85.152C143.308 85.424 143.82 85.824 144.188 86.352L143.684 86.856C143.364 86.408 142.916 86.056 142.34 85.8C141.764 85.528 141.124 85.392 140.42 85.392C139.524 85.392 138.844 85.592 138.38 85.992C137.916 86.392 137.684 86.888 137.684 87.48C137.684 88.04 137.836 88.48 138.14 88.8C138.46 89.12 138.868 89.368 139.364 89.544C139.86 89.72 140.38 89.888 140.924 90.048C141.484 90.192 142.012 90.384 142.508 90.624C143.004 90.848 143.404 91.168 143.708 91.584C144.028 91.984 144.188 92.544 144.188 93.264C144.188 94.176 143.844 94.904 143.156 95.448C142.484 95.976 141.58 96.24 140.444 96.24Z" fill="black"/>
</svg>
