<svg width="25" height="24" viewBox="0 0 25 24" fill="none" xmlns="http://www.w3.org/2000/svg">
<path d="M23.9614 17.4408V20.7466C23.9627 21.0535 23.8968 21.3572 23.768 21.6384C23.6392 21.9196 23.4503 22.172 23.2133 22.3795C22.9764 22.5869 22.6967 22.7449 22.3921 22.8432C22.0875 22.9415 21.7647 22.978 21.4445 22.9504C17.8918 22.582 14.4792 21.4233 11.4809 19.5675C8.6914 17.8757 6.32636 15.6184 4.55377 12.956C2.60259 10.0813 1.38834 6.80834 1.00937 3.4023C0.98052 3.09758 1.01846 2.79047 1.12078 2.50051C1.2231 2.21056 1.38756 1.94411 1.60368 1.71814C1.8198 1.49217 2.08286 1.31163 2.37609 1.18801C2.66932 1.06439 2.98632 1.00039 3.30688 1.00011H6.77047C7.33077 0.994844 7.87395 1.18421 8.29879 1.53292C8.72362 1.88163 9.0011 2.36588 9.07952 2.89541C9.22571 3.95333 9.49683 4.99207 9.88769 5.99182C10.043 6.38622 10.0766 6.81486 9.98456 7.22694C9.89248 7.63903 9.67856 8.01728 9.36815 8.31688L7.9019 9.71632C9.54544 12.475 11.9387 14.7592 14.8291 16.3279L16.2953 14.9284C16.6092 14.6322 17.0055 14.428 17.4373 14.3401C17.869 14.2522 18.3181 14.2843 18.7314 14.4326C19.7788 14.8056 20.8672 15.0644 21.9756 15.2039C22.5364 15.2794 23.0486 15.549 23.4148 15.9615C23.7809 16.3739 23.9754 16.9004 23.9614 17.4408Z" stroke="white" stroke-width="1.99832" stroke-linecap="round" stroke-linejoin="round"/>
</svg>
